<svg xmlns="http://www.w3.org/2000/svg" width="16" height="12" viewBox="0 0 16 12">
    <path fill="#FFF" fill-rule="nonzero" d="M15.779 6.53l-5.334 5.25c-.476.469-1.302.14-1.302-.531v-3H4.826a.754.754 0 0 1-.762-.75v-3c0-.415.34-.749.762-.749h4.317v-3c0-.668.823-1 1.302-.53l5.334 5.249a.748.748 0 0 1 0 1.062zm-9.683 5.094v-1.25a.38.38 0 0 0-.381-.375H3.048a1.007 1.007 0 0 1-1.016-1V3c0-.553.454-1 1.016-1h2.667a.38.38 0 0 0 .38-.375V.375a.38.38 0 0 0-.38-.374H3.048C1.365 0 0 1.344 0 3v5.998c0 1.656 1.365 3 3.048 3h2.667a.38.38 0 0 0 .38-.375z"/>
</svg>
