<svg xmlns="http://www.w3.org/2000/svg" width="10" height="12" viewBox="0 0 10 12">
    <path fill="#FFF" fill-rule="evenodd" d="M10 9.93c0 .567-.163 1.054-.488 1.46-.326.407-.718.61-1.176.61H1.664c-.458 0-.85-.203-1.176-.61C.163 10.985 0 10.498 0 9.93c0-.443.022-.861.066-1.254.045-.393.127-.79.246-1.188.12-.398.273-.74.458-1.023.184-.284.43-.516.734-.695a2.03 2.03 0 0 1 1.05-.27c.683.667 1.498 1 2.446 1 .948 0 1.763-.333 2.445-1 .396 0 .746.09 1.051.27.305.18.55.411.734.695.185.284.338.625.457 1.023.12.399.202.795.247 1.188.044.393.066.811.066 1.254zM7.117.883C7.706 1.466 8 2.172 8 3a2.89 2.89 0 0 1-.879 2.121A2.89 2.89 0 0 1 5 6a2.89 2.89 0 0 1-2.121-.879A2.89 2.89 0 0 1 2 3c0-.828.293-1.535.879-2.121A2.89 2.89 0 0 1 5 0c.828 0 1.534.294 2.117.883z"/>
</svg>
